<svg xmlns="http://www.w3.org/2000/svg" xmlns:xlink="http://www.w3.org/1999/xlink" width="500" zoomAndPan="magnify" viewBox="0 0 375 374.999991" height="500" preserveAspectRatio="xMidYMid meet" version="1.2"><defs><clipPath id="83c3cf6008"><path d="M 0 83.671875 L 195 83.671875 L 195 289 L 0 289 Z M 0 83.671875 "/></clipPath><clipPath id="cb5f7d04de"><path d="M 196 157 L 375 157 L 375 291.421875 L 196 291.421875 Z M 196 157 "/></clipPath></defs><g id="a5d21c4c68"><g clip-rule="nonzero" clip-path="url(#83c3cf6008)"><path style=" stroke:none;fill-rule:nonzero;fill:#be0380;fill-opacity:1;" d="M 167.738281 137.390625 C 163.441406 137.390625 159.808594 135.878906 156.835938 132.855469 C 154.027344 129.832031 152.625 126.132812 152.625 121.765625 C 152.625 117.398438 154.027344 113.703125 156.835938 110.679688 C 159.808594 107.652344 163.441406 106.140625 167.738281 106.140625 C 172.03125 106.140625 175.582031 107.652344 178.390625 110.679688 C 181.363281 113.703125 182.851562 117.398438 182.851562 121.765625 C 182.851562 126.132812 181.363281 129.832031 178.390625 132.855469 C 175.582031 135.878906 172.03125 137.390625 167.738281 137.390625 Z M 0 259.363281 C 0 249.621094 2.890625 241.722656 8.671875 235.675781 C 14.453125 229.460938 22.878906 224.417969 33.945312 220.554688 L 56.242188 212.742188 L 56.242188 191.574219 C 56.242188 181.324219 55.417969 173.933594 53.765625 169.394531 C 52.113281 164.859375 48.808594 162.59375 43.855469 162.59375 C 39.394531 162.59375 36.089844 164.105469 33.945312 167.128906 C 31.960938 169.984375 29.898438 174.519531 27.75 180.738281 C 25.765625 186.953125 23.703125 191.574219 21.554688 194.597656 C 19.410156 197.621094 16.105469 199.132812 11.644531 199.132812 C 8.507812 199.132812 6.027344 198.125 4.210938 196.109375 C 2.394531 193.925781 1.488281 191.070312 1.488281 187.542969 C 1.488281 181.828125 3.386719 176.621094 7.183594 171.917969 C 10.984375 167.210938 16.023438 163.601562 22.300781 161.082031 C 28.742188 158.390625 35.761719 157.046875 43.359375 157.046875 C 54.757812 157.046875 63.675781 159.902344 70.117188 165.617188 C 76.558594 171.328125 79.78125 179.058594 79.78125 188.800781 L 79.78125 268.6875 C 79.78125 272.386719 80.523438 275.242188 82.011719 277.257812 C 83.660156 279.105469 85.972656 280.027344 88.949219 280.027344 C 91.753906 280.027344 94.894531 279.355469 98.363281 278.011719 L 102.078125 276.5 L 102.078125 96.3125 L 84.238281 96.3125 L 84.238281 87.996094 L 108.027344 87.996094 C 113.808594 87.996094 117.769531 86.652344 119.917969 83.964844 L 125.617188 83.964844 L 125.617188 278.769531 L 153.863281 278.769531 L 153.863281 169.394531 L 138.253906 169.394531 L 138.253906 161.082031 L 159.808594 161.082031 C 165.589844 161.082031 169.554688 159.734375 171.703125 157.046875 L 177.398438 157.046875 L 177.398438 278.769531 L 194.742188 278.769531 L 194.742188 287.085938 L 91.671875 287.085938 C 86.058594 288.09375 81.761719 288.597656 78.789062 288.597656 C 66.402344 288.597656 59.132812 283.558594 56.984375 273.476562 L 54.011719 276.25 C 49.71875 280.113281 45.507812 283.136719 41.375 285.320312 C 37.414062 287.503906 33.117188 288.597656 28.492188 288.597656 C 20.070312 288.597656 13.214844 285.910156 7.929688 280.53125 C 2.644531 275.15625 0 268.101562 0 259.363281 Z M 23.042969 252.558594 C 23.042969 258.777344 24.695312 263.734375 27.996094 267.429688 C 31.300781 270.957031 35.84375 272.722656 41.625 272.722656 C 46.25 272.722656 50.710938 270.957031 55.003906 267.429688 L 56.242188 266.421875 L 56.242188 220.554688 L 41.625 226.351562 C 29.234375 231.222656 23.042969 239.960938 23.042969 252.558594 Z M 23.042969 252.558594 "/></g><g clip-rule="nonzero" clip-path="url(#cb5f7d04de)"><path style=" stroke:none;fill-rule:nonzero;fill:#be0380;fill-opacity:1;" d="M 246.410156 165.113281 C 241.289062 165.113281 236.746094 167.546875 232.78125 172.421875 C 228.820312 177.292969 225.761719 183.761719 223.617188 191.824219 C 221.632812 199.722656 220.640625 208.039062 220.640625 216.773438 C 220.640625 233.742188 223.617188 247.101562 229.5625 256.84375 C 235.671875 266.421875 244.097656 271.210938 254.835938 271.210938 C 263.917969 271.210938 271.019531 267.34375 276.140625 259.617188 C 281.425781 251.71875 284.070312 240.96875 284.070312 227.359375 C 284.070312 213.582031 286.050781 201.402344 290.015625 190.816406 C 294.144531 180.234375 300.011719 172 307.609375 166.121094 C 315.207031 160.070312 324.042969 157.046875 334.121094 157.046875 C 346.339844 157.046875 356.167969 161.164062 363.601562 169.394531 C 371.203125 177.628906 375 188.96875 375 203.417969 L 375 212.492188 L 305.625 212.492188 L 305.625 216.019531 C 305.625 231.140625 308.683594 244.160156 314.792969 255.082031 C 320.902344 265.832031 329.824219 271.210938 341.550781 271.210938 C 346.339844 271.210938 350.390625 270.621094 353.691406 269.445312 C 356.996094 268.101562 360.300781 265.832031 363.601562 262.640625 L 368.308594 258.355469 L 373.515625 263.902344 L 367.816406 271.210938 C 357.242188 284.480469 345.101562 291.117188 331.390625 291.117188 C 320.492188 291.117188 311.160156 287.671875 303.394531 280.785156 C 295.632812 273.898438 290.183594 264.40625 287.042969 252.308594 C 284.234375 263.902344 279.113281 273.308594 271.683594 280.53125 C 264.414062 287.589844 255.824219 291.117188 245.914062 291.117188 C 230.554688 291.117188 218.496094 285.488281 209.742188 274.234375 C 201.152344 262.976562 196.855469 247.605469 196.855469 228.113281 C 196.855469 214.339844 199.085938 202.074219 203.546875 191.320312 C 208.171875 180.402344 214.449219 172 222.375 166.121094 C 230.46875 160.070312 239.636719 157.046875 249.878906 157.046875 C 259.789062 157.046875 267.71875 159.398438 273.664062 164.105469 C 279.777344 168.808594 282.832031 175.023438 282.832031 182.753906 C 282.832031 187.457031 281.757812 191.238281 279.609375 194.09375 C 277.464844 196.78125 274.65625 198.125 271.1875 198.125 C 267.058594 198.125 264.082031 196.613281 262.265625 193.589844 C 260.449219 190.566406 258.796875 186.195312 257.3125 180.484375 C 255.824219 175.109375 254.421875 171.246094 253.101562 168.890625 C 251.777344 166.371094 249.546875 165.113281 246.410156 165.113281 Z M 352.207031 204.929688 L 352.207031 196.613281 C 352.207031 186.367188 350.46875 178.46875 347.003906 172.925781 C 343.699219 167.378906 338.910156 164.609375 332.632812 164.609375 C 325.367188 164.609375 319.417969 168.386719 314.792969 175.949219 C 310.332031 183.507812 307.441406 193.167969 306.121094 204.929688 Z M 352.207031 204.929688 "/></g></g></svg>