<svg xmlns="http://www.w3.org/2000/svg" xmlns:xlink="http://www.w3.org/1999/xlink" width="50" zoomAndPan="magnify" viewBox="0 0 37.5 37.499999" height="50" preserveAspectRatio="xMidYMid meet" version="1.2"><defs><clipPath id="4722c9163b"><path d="M 0 0 L 37.007812 0 L 37.007812 36.871094 L 0 36.871094 Z M 0 0 "/></clipPath><clipPath id="75c2d41320"><path d="M 37.007812 18.367188 C 37.007812 18.972656 36.976562 19.578125 36.917969 20.179688 C 36.859375 20.785156 36.769531 21.382812 36.652344 21.976562 C 36.53125 22.570312 36.386719 23.15625 36.210938 23.738281 C 36.035156 24.316406 35.828125 24.886719 35.597656 25.449219 C 35.367188 26.007812 35.105469 26.554688 34.820312 27.089844 C 34.535156 27.625 34.226562 28.144531 33.886719 28.648438 C 33.550781 29.152344 33.191406 29.636719 32.804688 30.105469 C 32.421875 30.574219 32.015625 31.023438 31.585938 31.449219 C 31.160156 31.878906 30.710938 32.285156 30.242188 32.671875 C 29.773438 33.054688 29.285156 33.414062 28.78125 33.75 C 28.277344 34.089844 27.761719 34.398438 27.226562 34.683594 C 26.691406 34.972656 26.144531 35.230469 25.585938 35.460938 C 25.023438 35.695312 24.453125 35.898438 23.875 36.074219 C 23.292969 36.25 22.707031 36.394531 22.113281 36.515625 C 21.519531 36.632812 20.921875 36.722656 20.316406 36.78125 C 19.714844 36.839844 19.109375 36.871094 18.503906 36.871094 C 17.898438 36.871094 17.292969 36.839844 16.691406 36.78125 C 16.085938 36.722656 15.488281 36.632812 14.894531 36.515625 C 14.300781 36.394531 13.710938 36.25 13.132812 36.074219 C 12.550781 35.898438 11.980469 35.695312 11.421875 35.460938 C 10.863281 35.230469 10.316406 34.972656 9.78125 34.683594 C 9.246094 34.398438 8.726562 34.089844 8.222656 33.75 C 7.71875 33.414062 7.234375 33.054688 6.765625 32.671875 C 6.296875 32.285156 5.847656 31.878906 5.417969 31.449219 C 4.992188 31.023438 4.585938 30.574219 4.199219 30.105469 C 3.816406 29.636719 3.453125 29.152344 3.117188 28.648438 C 2.78125 28.144531 2.46875 27.625 2.183594 27.089844 C 1.898438 26.554688 1.640625 26.007812 1.410156 25.449219 C 1.175781 24.886719 0.972656 24.316406 0.796875 23.738281 C 0.621094 23.15625 0.472656 22.570312 0.355469 21.976562 C 0.238281 21.382812 0.148438 20.785156 0.0898438 20.179688 C 0.03125 19.578125 0 18.972656 0 18.367188 C 0 17.761719 0.03125 17.15625 0.0898438 16.554688 C 0.148438 15.949219 0.238281 15.351562 0.355469 14.757812 C 0.472656 14.164062 0.621094 13.574219 0.796875 12.996094 C 0.972656 12.414062 1.175781 11.847656 1.410156 11.285156 C 1.640625 10.726562 1.898438 10.179688 2.183594 9.644531 C 2.46875 9.109375 2.78125 8.589844 3.117188 8.085938 C 3.453125 7.582031 3.816406 7.097656 4.199219 6.628906 C 4.585938 6.160156 4.992188 5.710938 5.417969 5.28125 C 5.847656 4.855469 6.296875 4.449219 6.765625 4.0625 C 7.234375 3.679688 7.71875 3.320312 8.222656 2.980469 C 8.726562 2.644531 9.246094 2.335938 9.78125 2.046875 C 10.316406 1.761719 10.863281 1.503906 11.421875 1.273438 C 11.980469 1.039062 12.550781 0.835938 13.132812 0.660156 C 13.710938 0.484375 14.300781 0.335938 14.894531 0.21875 C 15.488281 0.101562 16.085938 0.0117188 16.691406 -0.046875 C 17.292969 -0.105469 17.898438 -0.136719 18.503906 -0.136719 C 19.109375 -0.136719 19.714844 -0.105469 20.316406 -0.046875 C 20.921875 0.0117188 21.519531 0.101562 22.113281 0.21875 C 22.707031 0.335938 23.292969 0.484375 23.875 0.660156 C 24.453125 0.835938 25.023438 1.039062 25.585938 1.273438 C 26.144531 1.503906 26.691406 1.761719 27.226562 2.046875 C 27.761719 2.335938 28.277344 2.644531 28.78125 2.980469 C 29.285156 3.320312 29.773438 3.679688 30.242188 4.0625 C 30.710938 4.449219 31.160156 4.855469 31.585938 5.28125 C 32.015625 5.710938 32.421875 6.160156 32.804688 6.628906 C 33.191406 7.097656 33.550781 7.582031 33.886719 8.085938 C 34.226562 8.589844 34.535156 9.109375 34.820312 9.644531 C 35.105469 10.179688 35.367188 10.726562 35.597656 11.285156 C 35.828125 11.847656 36.035156 12.414062 36.210938 12.996094 C 36.386719 13.574219 36.53125 14.164062 36.652344 14.757812 C 36.769531 15.351562 36.859375 15.949219 36.917969 16.554688 C 36.976562 17.15625 37.007812 17.761719 37.007812 18.367188 Z M 37.007812 18.367188 "/></clipPath><linearGradient x1="0.049891" gradientTransform="matrix(0.120543,0,0,0.120543,0.0000005,-0.136463)" y1="307.049902" x2="306.484573" gradientUnits="userSpaceOnUse" y2="0.61663" id="10b318d119"><stop style="stop-color:#fec053;stop-opacity:1;" offset="0"/><stop style="stop-color:#fec053;stop-opacity:1;" offset="0.125"/><stop style="stop-color:#fec053;stop-opacity:1;" offset="0.140625"/><stop style="stop-color:#fec053;stop-opacity:1;" offset="0.148437"/><stop style="stop-color:#febd53;stop-opacity:1;" offset="0.152344"/><stop style="stop-color:#febb52;stop-opacity:1;" offset="0.15625"/><stop style="stop-color:#fdba52;stop-opacity:1;" offset="0.160156"/><stop style="stop-color:#fdb852;stop-opacity:1;" offset="0.164062"/><stop style="stop-color:#fdb652;stop-opacity:1;" offset="0.167969"/><stop style="stop-color:#fdb451;stop-opacity:1;" offset="0.171875"/><stop style="stop-color:#fdb251;stop-opacity:1;" offset="0.175781"/><stop style="stop-color:#fdb051;stop-opacity:1;" offset="0.179687"/><stop style="stop-color:#fdae51;stop-opacity:1;" offset="0.183594"/><stop style="stop-color:#fdac50;stop-opacity:1;" offset="0.1875"/><stop style="stop-color:#fcab50;stop-opacity:1;" offset="0.191406"/><stop style="stop-color:#fca950;stop-opacity:1;" offset="0.195312"/><stop style="stop-color:#fca750;stop-opacity:1;" offset="0.199219"/><stop style="stop-color:#fca54f;stop-opacity:1;" offset="0.203125"/><stop style="stop-color:#fca34f;stop-opacity:1;" offset="0.207031"/><stop style="stop-color:#fca14f;stop-opacity:1;" offset="0.210938"/><stop style="stop-color:#fc9f4f;stop-opacity:1;" offset="0.214844"/><stop style="stop-color:#fb9d4e;stop-opacity:1;" offset="0.21875"/><stop style="stop-color:#fb9c4e;stop-opacity:1;" offset="0.222656"/><stop style="stop-color:#fb9a4e;stop-opacity:1;" offset="0.226562"/><stop style="stop-color:#fb984e;stop-opacity:1;" offset="0.230469"/><stop style="stop-color:#fb964d;stop-opacity:1;" offset="0.234375"/><stop style="stop-color:#fb944d;stop-opacity:1;" offset="0.238281"/><stop style="stop-color:#fb924d;stop-opacity:1;" offset="0.242188"/><stop style="stop-color:#fa904d;stop-opacity:1;" offset="0.246094"/><stop style="stop-color:#fa8e4c;stop-opacity:1;" offset="0.25"/><stop style="stop-color:#fa8d4c;stop-opacity:1;" offset="0.253906"/><stop style="stop-color:#fa8b4c;stop-opacity:1;" offset="0.257812"/><stop style="stop-color:#fa894c;stop-opacity:1;" offset="0.261719"/><stop style="stop-color:#fa874b;stop-opacity:1;" offset="0.265625"/><stop style="stop-color:#fa854b;stop-opacity:1;" offset="0.269531"/><stop style="stop-color:#f9834b;stop-opacity:1;" offset="0.273438"/><stop style="stop-color:#f9814b;stop-opacity:1;" offset="0.277344"/><stop style="stop-color:#f9804a;stop-opacity:1;" offset="0.28125"/><stop style="stop-color:#f97e4a;stop-opacity:1;" offset="0.285156"/><stop style="stop-color:#f97c4a;stop-opacity:1;" offset="0.289062"/><stop style="stop-color:#f97a4a;stop-opacity:1;" offset="0.292969"/><stop style="stop-color:#f97849;stop-opacity:1;" offset="0.296875"/><stop style="stop-color:#f87649;stop-opacity:1;" offset="0.300781"/><stop style="stop-color:#f87449;stop-opacity:1;" offset="0.304687"/><stop style="stop-color:#f87249;stop-opacity:1;" offset="0.308594"/><stop style="stop-color:#f87148;stop-opacity:1;" offset="0.3125"/><stop style="stop-color:#f86f48;stop-opacity:1;" offset="0.316406"/><stop style="stop-color:#f86d48;stop-opacity:1;" offset="0.320312"/><stop style="stop-color:#f86b48;stop-opacity:1;" offset="0.324219"/><stop style="stop-color:#f76948;stop-opacity:1;" offset="0.328125"/><stop style="stop-color:#f76747;stop-opacity:1;" offset="0.332031"/><stop style="stop-color:#f76547;stop-opacity:1;" offset="0.335938"/><stop style="stop-color:#f76347;stop-opacity:1;" offset="0.339844"/><stop style="stop-color:#f76247;stop-opacity:1;" offset="0.34375"/><stop style="stop-color:#f76046;stop-opacity:1;" offset="0.347656"/><stop style="stop-color:#f75e46;stop-opacity:1;" offset="0.351562"/><stop style="stop-color:#f65c46;stop-opacity:1;" offset="0.355469"/><stop style="stop-color:#f65a46;stop-opacity:1;" offset="0.359375"/><stop style="stop-color:#f65845;stop-opacity:1;" offset="0.363281"/><stop style="stop-color:#f65645;stop-opacity:1;" offset="0.367188"/><stop style="stop-color:#f65445;stop-opacity:1;" offset="0.371094"/><stop style="stop-color:#f65345;stop-opacity:1;" offset="0.375"/><stop style="stop-color:#f65144;stop-opacity:1;" offset="0.378906"/><stop style="stop-color:#f64f44;stop-opacity:1;" offset="0.382812"/><stop style="stop-color:#f54d44;stop-opacity:1;" offset="0.386719"/><stop style="stop-color:#f54b44;stop-opacity:1;" offset="0.390625"/><stop style="stop-color:#f54943;stop-opacity:1;" offset="0.394531"/><stop style="stop-color:#f54743;stop-opacity:1;" offset="0.398438"/><stop style="stop-color:#f54543;stop-opacity:1;" offset="0.402344"/><stop style="stop-color:#f54443;stop-opacity:1;" offset="0.40625"/><stop style="stop-color:#f54242;stop-opacity:1;" offset="0.410156"/><stop style="stop-color:#f44042;stop-opacity:1;" offset="0.414062"/><stop style="stop-color:#f43e42;stop-opacity:1;" offset="0.417969"/><stop style="stop-color:#f43c42;stop-opacity:1;" offset="0.421875"/><stop style="stop-color:#f43a41;stop-opacity:1;" offset="0.425781"/><stop style="stop-color:#f43841;stop-opacity:1;" offset="0.429688"/><stop style="stop-color:#f43741;stop-opacity:1;" offset="0.433594"/><stop style="stop-color:#f43541;stop-opacity:1;" offset="0.4375"/><stop style="stop-color:#f33340;stop-opacity:1;" offset="0.441406"/><stop style="stop-color:#f33140;stop-opacity:1;" offset="0.445313"/><stop style="stop-color:#f32f40;stop-opacity:1;" offset="0.449219"/><stop style="stop-color:#f32d40;stop-opacity:1;" offset="0.453125"/><stop style="stop-color:#f32b3f;stop-opacity:1;" offset="0.457031"/><stop style="stop-color:#f3293f;stop-opacity:1;" offset="0.460938"/><stop style="stop-color:#f3283f;stop-opacity:1;" offset="0.464844"/><stop style="stop-color:#f2263f;stop-opacity:1;" offset="0.46875"/><stop style="stop-color:#f2243e;stop-opacity:1;" offset="0.472656"/><stop style="stop-color:#f2223e;stop-opacity:1;" offset="0.476562"/><stop style="stop-color:#f1213f;stop-opacity:1;" offset="0.480469"/><stop style="stop-color:#f12040;stop-opacity:1;" offset="0.484375"/><stop style="stop-color:#ef2043;stop-opacity:1;" offset="0.488281"/><stop style="stop-color:#ee2045;stop-opacity:1;" offset="0.492187"/><stop style="stop-color:#ed2047;stop-opacity:1;" offset="0.496094"/><stop style="stop-color:#eb204a;stop-opacity:1;" offset="0.5"/><stop style="stop-color:#ea204c;stop-opacity:1;" offset="0.503906"/><stop style="stop-color:#e9204f;stop-opacity:1;" offset="0.507812"/><stop style="stop-color:#e72051;stop-opacity:1;" offset="0.511719"/><stop style="stop-color:#e62054;stop-opacity:1;" offset="0.515625"/><stop style="stop-color:#e52056;stop-opacity:1;" offset="0.519531"/><stop style="stop-color:#e32058;stop-opacity:1;" offset="0.523437"/><stop style="stop-color:#e2205b;stop-opacity:1;" offset="0.527344"/><stop style="stop-color:#e1205d;stop-opacity:1;" offset="0.53125"/><stop style="stop-color:#df2060;stop-opacity:1;" offset="0.535156"/><stop style="stop-color:#de2062;stop-opacity:1;" offset="0.539062"/><stop style="stop-color:#dd2065;stop-opacity:1;" offset="0.542969"/><stop style="stop-color:#db2067;stop-opacity:1;" offset="0.546875"/><stop style="stop-color:#da2069;stop-opacity:1;" offset="0.550781"/><stop style="stop-color:#d8206c;stop-opacity:1;" offset="0.554688"/><stop style="stop-color:#d7206e;stop-opacity:1;" offset="0.558594"/><stop style="stop-color:#d62071;stop-opacity:1;" offset="0.5625"/><stop style="stop-color:#d41f73;stop-opacity:1;" offset="0.566406"/><stop style="stop-color:#d31f76;stop-opacity:1;" offset="0.570312"/><stop style="stop-color:#d21f78;stop-opacity:1;" offset="0.574219"/><stop style="stop-color:#d01f7a;stop-opacity:1;" offset="0.578125"/><stop style="stop-color:#cf1f7d;stop-opacity:1;" offset="0.582031"/><stop style="stop-color:#ce1f7f;stop-opacity:1;" offset="0.585938"/><stop style="stop-color:#cc1f82;stop-opacity:1;" offset="0.589844"/><stop style="stop-color:#cb1f84;stop-opacity:1;" offset="0.59375"/><stop style="stop-color:#ca1f87;stop-opacity:1;" offset="0.597656"/><stop style="stop-color:#c81f89;stop-opacity:1;" offset="0.601562"/><stop style="stop-color:#c71f8b;stop-opacity:1;" offset="0.605469"/><stop style="stop-color:#c61f8e;stop-opacity:1;" offset="0.609375"/><stop style="stop-color:#c41f90;stop-opacity:1;" offset="0.613281"/><stop style="stop-color:#c31f93;stop-opacity:1;" offset="0.617188"/><stop style="stop-color:#c21f95;stop-opacity:1;" offset="0.621094"/><stop style="stop-color:#c01f98;stop-opacity:1;" offset="0.625"/><stop style="stop-color:#bf1f9a;stop-opacity:1;" offset="0.628906"/><stop style="stop-color:#be1f9c;stop-opacity:1;" offset="0.632812"/><stop style="stop-color:#bc1f9f;stop-opacity:1;" offset="0.636719"/><stop style="stop-color:#bb1fa1;stop-opacity:1;" offset="0.640625"/><stop style="stop-color:#b91fa4;stop-opacity:1;" offset="0.644531"/><stop style="stop-color:#b81fa6;stop-opacity:1;" offset="0.648438"/><stop style="stop-color:#b620a8;stop-opacity:1;" offset="0.652344"/><stop style="stop-color:#b520a9;stop-opacity:1;" offset="0.65625"/><stop style="stop-color:#b321aa;stop-opacity:1;" offset="0.660156"/><stop style="stop-color:#b122ab;stop-opacity:1;" offset="0.664062"/><stop style="stop-color:#af23ac;stop-opacity:1;" offset="0.667969"/><stop style="stop-color:#ad24ad;stop-opacity:1;" offset="0.671875"/><stop style="stop-color:#ab25ae;stop-opacity:1;" offset="0.675781"/><stop style="stop-color:#a926ae;stop-opacity:1;" offset="0.679688"/><stop style="stop-color:#a727af;stop-opacity:1;" offset="0.683594"/><stop style="stop-color:#a528b0;stop-opacity:1;" offset="0.6875"/><stop style="stop-color:#a329b1;stop-opacity:1;" offset="0.691406"/><stop style="stop-color:#a12ab2;stop-opacity:1;" offset="0.695312"/><stop style="stop-color:#a02bb3;stop-opacity:1;" offset="0.699219"/><stop style="stop-color:#9e2cb4;stop-opacity:1;" offset="0.703125"/><stop style="stop-color:#9c2db5;stop-opacity:1;" offset="0.707031"/><stop style="stop-color:#9a2eb5;stop-opacity:1;" offset="0.710937"/><stop style="stop-color:#982fb6;stop-opacity:1;" offset="0.714844"/><stop style="stop-color:#9630b7;stop-opacity:1;" offset="0.71875"/><stop style="stop-color:#9431b8;stop-opacity:1;" offset="0.722656"/><stop style="stop-color:#9232b9;stop-opacity:1;" offset="0.726562"/><stop style="stop-color:#9033ba;stop-opacity:1;" offset="0.730469"/><stop style="stop-color:#8e34bb;stop-opacity:1;" offset="0.734375"/><stop style="stop-color:#8c34bc;stop-opacity:1;" offset="0.738281"/><stop style="stop-color:#8a35bd;stop-opacity:1;" offset="0.742188"/><stop style="stop-color:#8836bd;stop-opacity:1;" offset="0.746094"/><stop style="stop-color:#8637be;stop-opacity:1;" offset="0.75"/><stop style="stop-color:#8538bf;stop-opacity:1;" offset="0.753906"/><stop style="stop-color:#8339c0;stop-opacity:1;" offset="0.757812"/><stop style="stop-color:#813ac1;stop-opacity:1;" offset="0.761719"/><stop style="stop-color:#7f3bc2;stop-opacity:1;" offset="0.765625"/><stop style="stop-color:#7d3cc3;stop-opacity:1;" offset="0.769531"/><stop style="stop-color:#7b3dc4;stop-opacity:1;" offset="0.773438"/><stop style="stop-color:#793ec4;stop-opacity:1;" offset="0.777344"/><stop style="stop-color:#773fc5;stop-opacity:1;" offset="0.78125"/><stop style="stop-color:#7540c6;stop-opacity:1;" offset="0.785156"/><stop style="stop-color:#7341c7;stop-opacity:1;" offset="0.789062"/><stop style="stop-color:#7142c8;stop-opacity:1;" offset="0.792969"/><stop style="stop-color:#6f43c9;stop-opacity:1;" offset="0.796875"/><stop style="stop-color:#6d44ca;stop-opacity:1;" offset="0.800781"/><stop style="stop-color:#6c45cb;stop-opacity:1;" offset="0.804688"/><stop style="stop-color:#6a46cc;stop-opacity:1;" offset="0.808594"/><stop style="stop-color:#6847cc;stop-opacity:1;" offset="0.8125"/><stop style="stop-color:#6648cd;stop-opacity:1;" offset="0.816406"/><stop style="stop-color:#6449ce;stop-opacity:1;" offset="0.820312"/><stop style="stop-color:#624acf;stop-opacity:1;" offset="0.824219"/><stop style="stop-color:#604bd0;stop-opacity:1;" offset="0.828125"/><stop style="stop-color:#5e4cd1;stop-opacity:1;" offset="0.832031"/><stop style="stop-color:#5c4cd2;stop-opacity:1;" offset="0.835938"/><stop style="stop-color:#5a4dd3;stop-opacity:1;" offset="0.839844"/><stop style="stop-color:#584ed3;stop-opacity:1;" offset="0.84375"/><stop style="stop-color:#564fd4;stop-opacity:1;" offset="0.847656"/><stop style="stop-color:#5450d5;stop-opacity:1;" offset="0.851562"/><stop style="stop-color:#5451d6;stop-opacity:1;" offset="0.855469"/><stop style="stop-color:#5351d6;stop-opacity:1;" offset="0.859375"/><stop style="stop-color:#5351d6;stop-opacity:1;" offset="0.875"/><stop style="stop-color:#5351d6;stop-opacity:1;" offset="1"/></linearGradient></defs><g id="d13278b8b2"><g clip-rule="nonzero" clip-path="url(#4722c9163b)"><g clip-rule="nonzero" clip-path="url(#75c2d41320)"><path style=" stroke:none;fill-rule:nonzero;fill:url(#10b318d119);" d="M 0 0 L 0 36.871094 L 37.007812 36.871094 L 37.007812 0 Z M 0 0 "/></g></g><path style=" stroke:none;fill-rule:nonzero;fill:#ffffff;fill-opacity:1;" d="M 23.46875 29.535156 L 13.601562 29.535156 C 10.183594 29.535156 7.402344 26.75 7.402344 23.332031 L 7.402344 13.46875 C 7.402344 10.046875 10.183594 7.265625 13.601562 7.265625 L 23.46875 7.265625 C 26.886719 7.265625 29.671875 10.046875 29.671875 13.46875 L 29.671875 23.332031 C 29.671875 26.75 26.886719 29.535156 23.46875 29.535156 Z M 13.601562 8.773438 C 11.015625 8.773438 8.910156 10.878906 8.910156 13.46875 L 8.910156 23.332031 C 8.910156 25.917969 11.015625 28.027344 13.601562 28.027344 L 23.46875 28.027344 C 26.054688 28.027344 28.164062 25.917969 28.164062 23.332031 L 28.164062 13.46875 C 28.164062 10.878906 26.054688 8.773438 23.46875 8.773438 Z M 13.601562 8.773438 "/><path style=" stroke:none;fill-rule:nonzero;fill:#ffffff;fill-opacity:1;" d="M 18.535156 23.914062 C 15.496094 23.914062 13.019531 21.441406 13.019531 18.398438 C 13.019531 15.359375 15.496094 12.882812 18.535156 12.882812 C 21.578125 12.882812 24.050781 15.359375 24.050781 18.398438 C 24.050781 21.441406 21.578125 23.914062 18.535156 23.914062 Z M 18.535156 14.390625 C 16.324219 14.390625 14.527344 16.1875 14.527344 18.398438 C 14.527344 20.609375 16.328125 22.40625 18.535156 22.40625 C 20.746094 22.40625 22.542969 20.609375 22.542969 18.398438 C 22.542969 16.1875 20.746094 14.390625 18.535156 14.390625 Z M 18.535156 14.390625 "/></g></svg>